<?xml version="1.0" encoding="UTF-8" standalone="no"?>
<svg width="205px" height="204px" viewBox="0 0 205 204" version="1.1" xmlns="http://www.w3.org/2000/svg" xmlns:xlink="http://www.w3.org/1999/xlink">
    <!-- Generator: Sketch 3.8.2 (29753) - http://www.bohemiancoding.com/sketch -->
    <title>Group</title>
    <desc>Created with Sketch.</desc>
    <defs>
        <path d="M131.458,0.965 L10.241,0.965 C4.979,0.965 0.714,6.591 0.714,13.532 C0.714,20.473 4.979,26.1 10.241,26.1 L131.458,26.1 C136.72,26.1 140.984,20.473 140.984,13.532 C140.984,6.591 136.72,0.965 131.458,0.965 L131.458,0.965 Z" id="path-1"></path>
    </defs>
    <g id="Page-1" stroke="none" stroke-width="1" fill="none" fill-rule="evenodd">
        <g id="8" transform="translate(-288.000000, -209.000000)">
            <g id="Livello_2" transform="translate(39.000000, 73.000000)">
                <g id="Group" transform="translate(0.000000, 134.000000)">
                    <g transform="translate(2.000000, 0.000000)">
                        <g transform="translate(247.000000, 2.000000)">
                            <circle id="Oval" fill="#14AA5A" cx="102.695" cy="101.956" r="101.874"></circle>
                            <g transform="translate(42.000000, 37.000000)">
                                <path d="M98.981,29.862 C98.981,24.698 81.851,20.511 60.72,20.511 C39.59,20.511 22.46,24.698 22.46,29.862 L22.46,60.114 C22.46,60.303 22.486,60.49 22.531,60.676 C22.486,60.997 22.46,61.321 22.46,61.647 C22.46,70.554 39.59,77.775 60.72,77.775 C81.851,77.775 98.981,70.554 98.981,61.647 C98.981,61.321 98.955,60.998 98.91,60.676 C98.955,60.49 98.981,60.302 98.981,60.114 L98.981,29.862 L98.981,29.862 Z" id="Shape" fill="#2B3D51"></path>
                                <polygon id="Shape" fill="#344960" points="60.721 0.422 0.521 23.682 60.721 46.94 120.921 23.682"></polygon>
                                <polygon id="Shape" fill="#F59D1E" points="119.705 23.074 60.721 23.074 60.721 24.29 119.705 24.29 119.705 44.228 120.921 44.228 120.921 24.29 120.921 23.074"></polygon>
                                <path d="M120.34,43.722 C119.002,43.722 117.907,44.816 117.907,46.154 L117.907,47.611 L117.907,49.499 L117.907,53.541 L118.692,53.541 L118.692,51.282 C118.837,51.415 118.995,51.532 119.168,51.628 L119.168,53.541 L119.953,53.541 L119.953,51.898 C120.08,51.919 120.208,51.932 120.34,51.932 C120.472,51.932 120.6,51.918 120.727,51.898 L120.727,53.541 L121.512,53.541 L121.512,51.628 C121.685,51.532 121.843,51.415 121.987,51.282 L121.987,53.541 L122.773,53.541 L122.773,49.499 L122.773,47.611 L122.773,46.154 C122.772,44.816 121.678,43.722 120.34,43.722 L120.34,43.722 Z" id="Shape" fill="#F59D1E"></path>
                                <circle id="Oval" fill="#F59D1E" cx="120.391" cy="41.921" r="2.787"></circle>
                            </g>
                            <g transform="translate(33.000000, 102.000000)">
                                <g transform="translate(0.000000, 17.000000)">
                                    <path d="M131.458,0.965 L10.241,0.965 C4.979,0.965 0.714,6.591 0.714,13.532 C0.714,20.473 4.979,26.1 10.241,26.1 L131.458,26.1 C136.72,26.1 140.984,20.473 140.984,13.532 C140.984,6.591 136.72,0.965 131.458,0.965 L131.458,0.965 Z" id="Shape" fill="#ECF0F1"></path>
                                    <g id="Clipped">
                                        <mask id="mask-2" fill="white">
                                            <use xlink:href="#path-1"></use>
                                        </mask>
                                        <g id="SVGID_3_"></g>
                                        <rect id="Rectangle-path" fill="#BEC3C7" mask="url(#mask-2)" x="-0.726" y="0.154" width="150.224" height="13.378"></rect>
                                    </g>
                                </g>
                                <g transform="translate(45.000000, 0.000000)" id="Shape" fill="#E64C34">
                                    <path d="M27.647,43.861 L27.647,43.861 C25.222,43.861 23.238,41.877 23.238,39.452 L23.238,21.664 C23.238,19.239 25.222,17.255 27.647,17.255 L27.647,17.255 C30.072,17.255 32.056,19.239 32.056,21.664 L32.056,39.452 C32.056,41.876 30.072,43.861 27.647,43.861 L27.647,43.861 Z"></path>
                                    <g>
                                        <path d="M27.647,17.297 L41.564,0.399 C41.83,0.076 42.354,0.251 42.373,0.669 L42.835,11.174 C42.845,11.4 43.019,11.584 43.243,11.608 L54.705,12.805 C55.187,12.855 55.268,13.523 54.812,13.688 L31.238,22.195 C31.048,22.264 30.836,22.199 30.716,22.037 L27.633,17.859 C27.508,17.69 27.514,17.459 27.647,17.297 L27.647,17.297 Z"></path>
                                        <path d="M27.647,17.297 L13.73,0.399 C13.464,0.076 12.94,0.251 12.922,0.669 L12.459,11.174 C12.449,11.4 12.275,11.584 12.051,11.608 L0.589,12.805 C0.107,12.855 0.026,13.523 0.482,13.688 L24.057,22.195 C24.247,22.264 24.459,22.199 24.579,22.037 L27.662,17.859 C27.786,17.69 27.78,17.459 27.647,17.297 L27.647,17.297 Z"></path>
                                    </g>
                                </g>
                            </g>
                        </g>
                    </g>
                </g>
            </g>
        </g>
    </g>
</svg>