<?xml version="1.0" encoding="UTF-8" standalone="no"?>
<svg width="204px" height="204px" viewBox="0 0 204 204" version="1.1" xmlns="http://www.w3.org/2000/svg" xmlns:xlink="http://www.w3.org/1999/xlink">
    <!-- Generator: Sketch 3.8.2 (29753) - http://www.bohemiancoding.com/sketch -->
    <title>Group</title>
    <desc>Created with Sketch.</desc>
    <defs>
        <circle id="path-1" cx="102.1" cy="101.956" r="101.671"></circle>
    </defs>
    <g id="Page-1" stroke="none" stroke-width="1" fill="none" fill-rule="evenodd">
        <g id="8" transform="translate(-41.000000, -209.000000)">
            <g id="Livello_2" transform="translate(39.000000, 73.000000)">
                <g id="Group" transform="translate(0.000000, 134.000000)">
                    <g transform="translate(2.000000, 0.000000)">
                        <g transform="translate(0.000000, 2.000000)">
                            <circle id="Oval" fill="#2E4257" cx="102.1" cy="101.956" r="101.671"></circle>
                            <g id="Clipped">
                                <mask id="mask-2" fill="white">
                                    <use xlink:href="#path-1"></use>
                                </mask>
                                <g id="SVGID_1_"></g>
                                <g id="Group" opacity="0.24" mask="url(#mask-2)" fill="#EDF1F2">
                                    <g transform="translate(120.000000, 46.000000)" id="Shape">
                                        <polygon points="112.283 27.077 83.771 135.409 0.588 48.647 22.021 2.238 124.878 0.639"></polygon>
                                    </g>
                                </g>
                            </g>
                            <g transform="translate(63.000000, 43.000000)">
                                <path d="M61.481,113.742 L61.481,112.389 C61.481,112.389 58.606,110.022 50.659,108.669 C42.712,107.316 43.726,105.626 43.726,105.626 L42.184,105.626 L42.184,104.025 L22.441,104.025 L22.441,105.626 L20.899,105.626 C20.899,105.626 21.914,107.317 13.966,108.669 C6.019,110.022 3.144,112.389 3.144,112.389 L3.144,113.742 L1.284,113.742 L1.284,117.631 L63.34,117.631 L63.34,113.742 L61.481,113.742 L61.481,113.742 Z" id="Shape" fill="#EB7A23"></path>
                                <rect id="Rectangle-path" fill="#EDF1F2" x="27.504" y="66.422" width="9.618" height="37.603"></rect>
                                <rect id="Rectangle-path" fill="#EDF1F2" transform="translate(20.911378, 52.792496) rotate(-42.373891) translate(-20.911378, -52.792496) " x="16.1026341" y="33.9900424" width="9.61748776" height="37.6049072"></rect>
                                <rect id="Rectangle-path" fill="#EDF1F2" transform="translate(22.314671, 31.245074) rotate(247.219707) translate(-22.314671, -31.245074) " x="17.5056517" y="12.4434999" width="9.6180377" height="37.6031474"></rect>
                                <g transform="translate(23.000000, 0.000000)">
                                    <circle id="Oval" fill="#D35427" cx="10.387" cy="11.87" r="10.101"></circle>
                                    <path d="M55.215,3.696 L29.422,6.933 C29.273,6.952 29.127,7.01 28.993,7.096 L13.997,0.171 C13.688,0.029 13.29,0.227 13.113,0.611 L3.26,21.946 C3.082,22.331 3.189,22.762 3.498,22.904 L18.473,29.82 C18.489,29.995 18.54,30.16 18.631,30.298 L32.891,52.032 C33.3,52.656 34.217,52.447 34.587,51.646 L40.752,38.298 L44.806,29.52 L45.802,27.364 L50.254,17.723 L56.02,5.237 C56.391,4.437 55.956,3.604 55.215,3.696 L55.215,3.696 Z" id="Shape" fill="#EB7A23"></path>
                                    <g transform="translate(31.000000, 3.000000)">
                                        <ellipse id="Oval" fill="#D35427" transform="translate(13.929468, 25.149145) rotate(24.783944) translate(-13.929468, -25.149145) " cx="13.9294677" cy="25.1491451" rx="2.33601291" ry="26.4051459"></ellipse>
                                        <path d="M18.677,15.641 C17.932,15.297 17.168,15.05 16.398,14.888 C13.555,20.065 10.406,26.48 7.636,33.716 C8.272,34.213 8.972,34.648 9.737,35.001 C15.083,37.47 21.418,35.138 23.886,29.792 C26.354,24.446 24.022,18.109 18.677,15.641 L18.677,15.641 Z" id="Shape" fill="#F9F9FA"></path>
                                    </g>
                                </g>
                                <circle id="Oval" fill="#EDF1F2" cx="10.239" cy="36.932" r="9.806"></circle>
                                <circle id="Oval" fill="#EDF1F2" cx="32.313" cy="66.422" r="9.806"></circle>
                                <circle id="Oval" fill="#2E4257" cx="32.313" cy="66.422" r="7.907"></circle>
                                <circle id="Oval" fill="#2E4257" cx="10.239" cy="36.932" r="7.907"></circle>
                                <rect id="Rectangle-path" fill="#D35427" x="1.285" y="113.742" width="62.056" height="3.889"></rect>
                                <rect id="Rectangle-path" fill="#D35427" x="22.441" y="104.025" width="19.743" height="1.601"></rect>
                                <polygon id="Shape" fill="#BEC3C7" points="25.555 24.681 37.435 30.124 39.75 29.025 28.063 23.628"></polygon>
                                <circle id="Oval" fill="#A32A22" cx="24.358" cy="11.13" r="0.792"></circle>
                                <circle id="Oval" fill="#A32A22" cx="25.981" cy="9.1" r="0.792"></circle>
                                <circle id="Oval" fill="#A32A22" cx="27.366" cy="6.924" r="0.792"></circle>
                                <circle id="Oval" fill="#A32A22" cx="28.158" cy="4.43" r="0.792"></circle>
                            </g>
                            <path d="M70.473,38.444 L72.261,42.067 C72.324,42.196 72.448,42.286 72.59,42.306 L76.588,42.887 C76.946,42.939 77.09,43.38 76.83,43.633 L73.937,46.453 C73.834,46.554 73.787,46.698 73.812,46.84 L74.495,50.822 C74.557,51.179 74.182,51.452 73.861,51.283 L70.285,49.403 C70.158,49.336 70.006,49.336 69.878,49.403 L66.302,51.283 C65.981,51.452 65.607,51.179 65.668,50.822 L66.351,46.84 C66.375,46.698 66.328,46.554 66.225,46.453 L63.332,43.633 C63.073,43.38 63.216,42.94 63.575,42.887 L67.573,42.306 C67.715,42.285 67.838,42.196 67.902,42.067 L69.69,38.444 C69.849,38.119 70.312,38.119 70.473,38.444 L70.473,38.444 Z" id="Shape" fill="#EDF1F2"></path>
                            <path d="M118.918,120.029 L120.012,122.244 C120.051,122.323 120.126,122.378 120.213,122.39 L122.658,122.745 C122.877,122.777 122.965,123.047 122.806,123.202 L121.037,124.926 C120.974,124.988 120.945,125.076 120.96,125.163 L121.378,127.598 C121.415,127.817 121.186,127.983 120.99,127.88 L118.803,126.73 C118.725,126.689 118.632,126.689 118.554,126.73 L116.367,127.88 C116.171,127.983 115.941,127.817 115.979,127.598 L116.396,125.163 C116.411,125.076 116.382,124.988 116.319,124.926 L114.55,123.202 C114.391,123.047 114.479,122.777 114.698,122.745 L117.143,122.39 C117.23,122.377 117.306,122.323 117.345,122.244 L118.438,120.029 C118.537,119.83 118.82,119.83 118.918,120.029 L118.918,120.029 Z" id="Shape" fill="#EDF1F2"></path>
                            <path d="M46.758,126.549 L47.852,128.765 C47.891,128.844 47.966,128.898 48.053,128.911 L50.498,129.266 C50.718,129.298 50.805,129.567 50.646,129.722 L48.876,131.447 C48.813,131.509 48.785,131.597 48.799,131.684 L49.216,134.119 C49.254,134.338 49.025,134.504 48.828,134.401 L46.641,133.252 C46.563,133.211 46.47,133.211 46.392,133.252 L44.205,134.401 C44.009,134.505 43.779,134.338 43.817,134.119 L44.234,131.684 C44.249,131.597 44.22,131.509 44.157,131.447 L42.387,129.722 C42.228,129.567 42.316,129.298 42.535,129.266 L44.98,128.911 C45.067,128.898 45.143,128.844 45.182,128.765 L46.275,126.549 C46.376,126.351 46.66,126.351 46.758,126.549 L46.758,126.549 Z" id="Shape" fill="#BEC3C7"></path>
                            <path d="M44.373,64.958 L46.123,68.505 C46.185,68.631 46.306,68.719 46.445,68.739 L50.36,69.308 C50.711,69.359 50.852,69.79 50.597,70.038 L47.764,72.799 C47.663,72.898 47.617,73.039 47.641,73.178 L48.309,77.076 C48.369,77.426 48.002,77.692 47.688,77.527 L44.187,75.687 C44.062,75.621 43.913,75.621 43.788,75.687 L40.287,77.527 C39.973,77.692 39.606,77.425 39.666,77.076 L40.334,73.178 C40.358,73.039 40.312,72.897 40.211,72.799 L37.378,70.038 C37.124,69.79 37.264,69.359 37.615,69.308 L41.53,68.739 C41.669,68.719 41.79,68.631 41.852,68.505 L43.602,64.958 C43.762,64.64 44.215,64.64 44.373,64.958 L44.373,64.958 Z" id="Shape" fill="#BEC3C7"></path>
                            <path d="M62.405,99.134 L63.533,101.42 C63.573,101.502 63.651,101.558 63.741,101.571 L66.264,101.938 C66.49,101.971 66.58,102.249 66.417,102.409 L64.591,104.188 C64.526,104.251 64.496,104.343 64.512,104.432 L64.943,106.945 C64.982,107.171 64.745,107.342 64.543,107.236 L62.287,106.049 C62.206,106.007 62.111,106.007 62.03,106.049 L59.774,107.236 C59.571,107.342 59.335,107.171 59.374,106.945 L59.805,104.432 C59.82,104.343 59.79,104.251 59.725,104.188 L57.9,102.409 C57.736,102.249 57.826,101.971 58.053,101.938 L60.575,101.571 C60.665,101.558 60.743,101.502 60.783,101.42 L61.911,99.134 C62.011,98.929 62.304,98.929 62.405,99.134 L62.405,99.134 Z" id="Shape" fill="#EDF1F2"></path>
                        </g>
                    </g>
                </g>
            </g>
        </g>
    </g>
</svg>