<?xml version="1.0" encoding="UTF-8" standalone="no"?>
<svg width="208px" height="208px" viewBox="0 0 208 208" version="1.1" xmlns="http://www.w3.org/2000/svg" xmlns:xlink="http://www.w3.org/1999/xlink">
    <!-- Generator: Sketch 3.8.2 (29753) - http://www.bohemiancoding.com/sketch -->
    <title>Group</title>
    <desc>Created with Sketch.</desc>
    <defs></defs>
    <g id="Page-1" stroke="none" stroke-width="1" fill="none" fill-rule="evenodd">
        <g id="8" transform="translate(-553.000000, -469.000000)">
            <g id="Livello_2" transform="translate(39.000000, 73.000000)">
                <g id="Group" transform="translate(0.000000, 134.000000)">
                    <g transform="translate(0.000000, 262.000000)">
                        <g transform="translate(514.000000, 0.000000)">
                            <circle id="Oval" fill="#FCB73F" cx="103.9" cy="104.045" r="103.431"></circle>
                            <g transform="translate(38.000000, 43.000000)">
                                <path d="M127.677,80.363 L14.973,80.363 C12.773,80.363 10.973,78.563 10.973,76.363 L10.973,64.31 C10.973,62.11 12.773,60.31 14.973,60.31 L127.677,60.31 C129.877,60.31 131.677,62.11 131.677,64.31 L131.677,76.363 C131.677,78.563 129.877,80.363 127.677,80.363 L127.677,80.363 Z" id="Shape" fill="#01AA8D"></path>
                                <rect id="Rectangle-path" fill="#009377" x="10.973" y="70.337" width="120.704" height="10.026"></rect>
                                <path d="M38.548,78.526 L26.635,78.526 C25.946,78.526 25.386,77.966 25.386,77.276 L25.386,62.761 C25.386,62.071 25.946,61.511 26.635,61.511 L38.548,61.511 C39.238,61.511 39.798,62.071 39.798,62.761 L39.798,77.276 C39.798,77.967 39.238,78.526 38.548,78.526 L38.548,78.526 Z" id="Shape" fill="#FFFFFF"></path>
                                <g transform="translate(0.000000, 80.000000)">
                                    <path d="M121.258,28.565 L121.258,2.988 L127.264,2.988 L127.264,0.363 L4.928,0.363 C2.286,0.363 0.124,2.525 0.124,5.168 L0.124,26.386 C0.124,29.029 2.286,31.191 4.928,31.191 L127.264,31.191 L127.264,28.566 L121.258,28.566 L121.258,28.565 Z" id="Shape" fill="#2F4052"></path>
                                    <path d="M124.061,2.988 L7.889,2.988 C5.38,2.988 3.327,4.782 3.327,6.974 L3.327,24.578 C3.327,26.77 5.381,28.564 7.889,28.564 L124.061,28.564 L124.061,2.988 L124.061,2.988 Z" id="Shape" fill="#FFFFFF"></path>
                                    <g transform="translate(7.000000, 4.000000)" id="Rectangle-path" fill="#ECF0F1">
                                        <rect x="0.771" y="0.467" width="116.29" height="0.601"></rect>
                                        <rect x="0.771" y="2.469" width="116.29" height="0.601"></rect>
                                        <rect x="0.771" y="4.471" width="116.29" height="0.601"></rect>
                                        <rect x="0.771" y="6.473" width="116.29" height="0.601"></rect>
                                        <rect x="0.771" y="8.474" width="116.29" height="0.601"></rect>
                                        <rect x="0.771" y="10.476" width="116.29" height="0.601"></rect>
                                        <rect x="0.771" y="12.478" width="116.29" height="0.601"></rect>
                                        <rect x="0.771" y="14.479" width="116.29" height="0.601"></rect>
                                        <rect x="0.771" y="16.481" width="116.29" height="0.601"></rect>
                                        <rect x="0.771" y="18.482" width="116.29" height="0.601"></rect>
                                        <rect x="0.771" y="20.484" width="116.29" height="0.601"></rect>
                                        <rect x="0.771" y="22.486" width="116.29" height="0.601"></rect>
                                    </g>
                                    <polygon id="Shape" fill="#01AA8D" points="7.771 15.076 26.386 15.076 26.386 41.297 17.078 34.49 7.771 41.297"></polygon>
                                    <rect id="Rectangle-path" fill="#009377" x="7.771" y="15.076" width="18.615" height="5.405"></rect>
                                </g>
                                <path d="M37.473,74.723 L27.71,74.723 C26.982,74.723 26.386,75.32 26.386,76.047 L26.386,76.135 C26.386,76.864 26.983,77.459 27.71,77.459 L37.473,77.459 C38.202,77.459 38.797,76.863 38.797,76.135 L38.797,76.047 C38.797,75.319 38.201,74.723 37.473,74.723 L37.473,74.723 Z" id="Shape" fill="#ECF0F1"></path>
                                <path d="M26.868,73.789 L26.838,73.789 C26.59,73.789 26.386,73.585 26.386,73.337 L26.386,63.498 C26.386,63.25 26.59,63.046 26.838,63.046 L26.868,63.046 C27.117,63.046 27.32,63.25 27.32,63.498 L27.32,73.337 C27.32,73.585 27.117,73.789 26.868,73.789 L26.868,73.789 Z" id="Shape" fill="#ECF0F1"></path>
                                <path d="M29.203,73.789 L29.174,73.789 C28.925,73.789 28.722,73.585 28.722,73.337 L28.722,63.498 C28.722,63.25 28.925,63.046 29.174,63.046 L29.203,63.046 C29.452,63.046 29.655,63.25 29.655,63.498 L29.655,73.337 C29.655,73.585 29.452,73.789 29.203,73.789 L29.203,73.789 Z" id="Shape" fill="#ECF0F1"></path>
                                <path d="M31.739,73.789 L31.709,73.789 C31.461,73.789 31.257,73.585 31.257,73.337 L31.257,63.498 C31.257,63.25 31.461,63.046 31.709,63.046 L31.739,63.046 C31.987,63.046 32.191,63.25 32.191,63.498 L32.191,73.337 C32.191,73.585 31.987,73.789 31.739,73.789 L31.739,73.789 Z" id="Shape" fill="#ECF0F1"></path>
                                <path d="M37.678,73.789 L37.648,73.789 C37.4,73.789 37.196,73.585 37.196,73.337 L37.196,63.498 C37.196,63.25 37.4,63.046 37.648,63.046 L37.678,63.046 C37.926,63.046 38.13,63.25 38.13,63.498 L38.13,73.337 C38.13,73.585 37.926,73.789 37.678,73.789 L37.678,73.789 Z" id="Shape" fill="#ECF0F1"></path>
                                <polygon id="Shape" fill="#009377" points="59.215 60.311 17.078 60.311 17.078 0.793 59.215 6.989"></polygon>
                                <polygon id="Shape" fill="#FFFFFF" points="21.582 3.328 59.215 9.261 59.215 60.311 21.582 60.311"></polygon>
                                <rect id="Rectangle-path" fill="#009377" x="59.215" y="7.064" width="48.274" height="53.246"></rect>
                                <rect id="Rectangle-path" fill="#FFFFFF" x="59.215" y="9.261" width="46.84" height="51.05"></rect>
                                <polyline id="Shape" fill="#CFCECE" points="21.582 3.328 18.779 3.328 18.779 60.311 21.582 60.311"></polyline>
                                <g opacity="0.4" transform="translate(59.000000, 9.000000)" id="Rectangle-path" fill="#CFCECE">
                                    <rect x="0.478" y="0.261" width="1.876" height="51.05"></rect>
                                </g>
                                <g transform="translate(62.000000, 12.000000)" id="Shape" fill="#ECF0F1">
                                    <path d="M39.005,1.604 L1.73,1.604 C1.375,1.604 1.084,1.313 1.084,0.958 L1.084,0.915 C1.084,0.56 1.374,0.269 1.73,0.269 L39.004,0.269 C39.359,0.269 39.65,0.56 39.65,0.915 L39.65,0.958 C39.651,1.312 39.36,1.604 39.005,1.604 L39.005,1.604 Z"></path>
                                    <path d="M39.005,4.006 L1.73,4.006 C1.375,4.006 1.084,3.715 1.084,3.36 L1.084,3.318 C1.084,2.963 1.374,2.672 1.73,2.672 L39.004,2.672 C39.359,2.672 39.65,2.963 39.65,3.318 L39.65,3.36 C39.651,3.715 39.36,4.006 39.005,4.006 L39.005,4.006 Z"></path>
                                    <path d="M39.005,10.812 L1.73,10.812 C1.375,10.812 1.084,10.521 1.084,10.166 L1.084,10.124 C1.084,9.769 1.374,9.478 1.73,9.478 L39.004,9.478 C39.359,9.478 39.65,9.769 39.65,10.124 L39.65,10.166 C39.651,10.521 39.36,10.812 39.005,10.812 L39.005,10.812 Z"></path>
                                    <path d="M39.005,14.814 L1.73,14.814 C1.375,14.814 1.084,14.524 1.084,14.168 L1.084,14.125 C1.084,13.771 1.374,13.479 1.73,13.479 L39.004,13.479 C39.359,13.479 39.65,13.77 39.65,14.125 L39.65,14.168 C39.651,14.524 39.36,14.814 39.005,14.814 L39.005,14.814 Z"></path>
                                    <path d="M38.071,25.624 L0.797,25.624 C0.442,25.624 0.151,25.334 0.151,24.978 L0.151,24.935 C0.151,24.58 0.442,24.289 0.797,24.289 L38.071,24.289 C38.426,24.289 38.717,24.579 38.717,24.935 L38.717,24.978 C38.717,25.334 38.427,25.624 38.071,25.624 L38.071,25.624 Z"></path>
                                    <path d="M38.071,28.827 L0.797,28.827 C0.442,28.827 0.151,28.536 0.151,28.181 L0.151,28.139 C0.151,27.784 0.442,27.493 0.797,27.493 L38.071,27.493 C38.426,27.493 38.717,27.784 38.717,28.139 L38.717,28.181 C38.717,28.536 38.427,28.827 38.071,28.827 L38.071,28.827 Z"></path>
                                    <path d="M38.071,32.029 L0.797,32.029 C0.442,32.029 0.151,31.739 0.151,31.383 L0.151,31.341 C0.151,30.986 0.442,30.695 0.797,30.695 L38.071,30.695 C38.426,30.695 38.717,30.986 38.717,31.341 L38.717,31.383 C38.717,31.739 38.427,32.029 38.071,32.029 L38.071,32.029 Z"></path>
                                    <path d="M38.071,35.366 L0.797,35.366 C0.442,35.366 0.151,35.075 0.151,34.72 L0.151,34.678 C0.151,34.323 0.442,34.032 0.797,34.032 L38.071,34.032 C38.426,34.032 38.717,34.323 38.717,34.678 L38.717,34.72 C38.717,35.075 38.427,35.366 38.071,35.366 L38.071,35.366 Z"></path>
                                </g>
                                <g transform="translate(24.000000, 9.000000)" id="Shape" fill="#ECF0F1">
                                    <path d="M31.867,34.605 C21.808,35.313 11.751,36.02 1.692,36.728 C1.325,36.753 1.025,37.095 1.025,37.487 L1.025,37.487 C1.025,37.879 1.326,38.175 1.692,38.147 C11.751,37.381 21.808,36.616 31.867,35.85 C32.234,35.822 32.534,35.52 32.534,35.179 L32.534,35.179 C32.534,34.838 32.234,34.58 31.867,34.605 L31.867,34.605 Z"></path>
                                    <path d="M31.867,32.365 C21.808,32.968 11.751,33.57 1.692,34.173 C1.325,34.194 1.025,34.533 1.025,34.925 L1.025,34.925 C1.025,35.317 1.326,35.617 1.692,35.593 C11.751,34.932 21.808,34.271 31.867,33.61 C32.234,33.587 32.534,33.288 32.534,32.946 L32.534,32.946 C32.534,32.604 32.234,32.343 31.867,32.365 L31.867,32.365 Z"></path>
                                    <path d="M31.867,26.016 C21.808,26.322 11.751,26.627 1.692,26.933 C1.325,26.944 1.025,27.274 1.025,27.665 L1.025,27.665 C1.025,28.057 1.326,28.366 1.692,28.353 C11.751,27.989 21.808,27.625 31.867,27.261 C32.234,27.247 32.534,26.957 32.534,26.616 L32.534,26.616 C32.534,26.275 32.234,26.005 31.867,26.016 L31.867,26.016 Z"></path>
                                    <path d="M31.867,22.281 C21.808,22.412 11.751,22.543 1.692,22.674 C1.325,22.679 1.025,23.003 1.025,23.395 L1.025,23.395 C1.025,23.787 1.326,24.101 1.692,24.094 C11.751,23.905 21.808,23.715 31.867,23.526 C32.234,23.519 32.534,23.234 32.534,22.893 L32.534,22.893 C32.534,22.552 32.234,22.276 31.867,22.281 L31.867,22.281 Z"></path>
                                    <path d="M31.104,12.171 C21.046,11.83 10.988,11.49 0.93,11.15 C0.563,11.137 0.263,11.448 0.263,11.841 L0.263,11.841 C0.262,12.234 0.563,12.564 0.93,12.573 C10.988,12.855 21.046,13.137 31.104,13.421 C31.471,13.431 31.772,13.159 31.772,12.817 L31.772,12.817 C31.771,12.475 31.471,12.184 31.104,12.171 L31.104,12.171 Z"></path>
                                    <path d="M31.104,9.173 C21.046,8.693 10.988,8.212 0.93,7.732 C0.563,7.714 0.263,8.021 0.263,8.415 L0.263,8.415 C0.262,8.808 0.563,9.142 0.93,9.156 C10.988,9.579 21.046,10.001 31.104,10.423 C31.471,10.439 31.772,10.171 31.772,9.828 L31.772,9.828 C31.771,9.484 31.471,9.19 31.104,9.173 L31.104,9.173 Z"></path>
                                    <path d="M31.104,6.174 L0.93,4.314 C0.563,4.292 0.263,4.594 0.263,4.987 L0.263,4.987 C0.262,5.381 0.563,5.718 0.93,5.739 C10.988,6.301 21.046,6.862 31.104,7.425 C31.471,7.446 31.772,7.181 31.772,6.839 L31.772,6.839 C31.771,6.496 31.471,6.197 31.104,6.174 L31.104,6.174 Z"></path>
                                    <path d="M31.104,3.051 C21.046,2.285 10.988,1.52 0.93,0.754 C0.563,0.726 0.263,1.025 0.263,1.417 L0.263,1.417 C0.262,1.81 0.563,2.152 0.93,2.178 C10.988,2.886 21.046,3.593 31.104,4.3 C31.471,4.326 31.772,4.067 31.772,3.725 L31.772,3.725 C31.771,3.382 31.471,3.079 31.104,3.051 L31.104,3.051 Z"></path>
                                </g>
                                <polygon id="Shape" fill="#E64C34" points="59.478 9.261 59.478 41.161 60.813 40.16 62.15 41.161 62.15 9.261"></polygon>
                            </g>
                        </g>
                    </g>
                </g>
            </g>
        </g>
    </g>
</svg>