<?xml version="1.0" encoding="UTF-8" standalone="no"?>
<svg width="208px" height="208px" viewBox="0 0 208 208" version="1.1" xmlns="http://www.w3.org/2000/svg" xmlns:xlink="http://www.w3.org/1999/xlink">
    <!-- Generator: Sketch 3.8.2 (29753) - http://www.bohemiancoding.com/sketch -->
    <title>Group</title>
    <desc>Created with Sketch.</desc>
    <defs></defs>
    <g id="Page-1" stroke="none" stroke-width="1" fill="none" fill-rule="evenodd">
        <g id="8" transform="translate(-39.000000, -469.000000)">
            <g id="Livello_2" transform="translate(39.000000, 73.000000)">
                <g id="Group" transform="translate(0.000000, 134.000000)">
                    <g transform="translate(0.000000, 262.000000)">
                        <g>
                            <circle id="Oval" fill="#FCB73F" cx="104.099" cy="104.045" r="103.431"></circle>
                            <g transform="translate(60.000000, 33.000000)">
                                <g transform="translate(44.000000, 22.000000)">
                                    <rect id="Rectangle-path" fill="#ECF0F1" transform="translate(29.011729, 53.646569) rotate(-13.296948) translate(-29.011729, -53.646569) " x="26.5937069" y="39.874943" width="4.8360441" height="27.5432512"></rect>
                                    <circle id="Oval" fill="#E64C34" cx="21.55" cy="22.021" r="21.025"></circle>
                                    <circle id="Oval" fill="#B5E3F1" cx="21.55" cy="22.022" r="16.4"></circle>
                                    <path d="M40.21,99.061 L39.344,99.265 C37.303,99.747 35.239,98.472 34.757,96.432 L28.387,69.477 C27.905,67.436 29.18,65.372 31.22,64.889 L32.087,64.685 C34.128,64.203 36.191,65.478 36.674,67.518 L43.043,94.473 C43.526,96.514 42.251,98.578 40.21,99.061 L40.21,99.061 Z" id="Shape" fill="#E64C34"></path>
                                    <circle id="Oval" fill="#ECF0F1" cx="24.735" cy="23.69" r="10.844"></circle>
                                </g>
                                <g>
                                    <path d="M42.88,72.725 L36.627,35.938 L36.627,35.937 C38.217,35.659 39.296,34.134 39.025,32.541 C38.754,30.943 37.224,29.858 35.626,30.13 L10.918,34.33 C9.32,34.601 8.235,36.131 8.506,37.729 C8.777,39.322 10.298,40.405 11.892,40.142 L11.892,40.142 L18.145,76.93 C6.05,84.102 -1.003,98.207 1.494,112.899 C4.732,131.95 22.801,144.768 41.851,141.53 C60.902,138.292 73.72,120.222 70.481,101.173 C67.983,86.48 56.666,75.498 42.88,72.725 L42.88,72.725 Z" id="Shape" fill="#FFFFFF"></path>
                                    <rect id="Rectangle-path" fill="#C1C6CA" transform="translate(24.377704, 38.717186) rotate(-9.647876) translate(-24.377704, -38.717186) " x="11.8316489" y="38.053157" width="25.0921111" height="1.32805881"></rect>
                                    <path d="M13.625,97.787 C11.219,86.499 7.72,90.922 7.568,91.121 C4.136,97.326 2.705,104.693 3.985,112.226 C6.985,129.877 23.727,141.755 41.379,138.754 C59.03,135.753 70.907,119.012 67.907,101.36 C67.71,100.204 67.453,99.073 67.143,97.969 C54.467,114.222 16.084,109.326 13.625,97.787 L13.625,97.787 Z" id="Shape" fill="#344960"></path>
                                    <circle id="Oval" fill="#628AA5" cx="11.081" cy="105.374" r="3.262"></circle>
                                    <circle id="Oval" fill="#628AA5" cx="24.07" cy="112.34" r="3.261"></circle>
                                    <circle id="Oval" fill="#628AA5" cx="59.533" cy="112.929" r="3.261"></circle>
                                    <circle id="Oval" fill="#628AA5" cx="37.484" cy="128.801" r="5.39"></circle>
                                    <circle id="Oval" fill="#628AA5" cx="16.006" cy="121.644" r="4.08"></circle>
                                    <circle id="Oval" fill="#628AA5" cx="43.931" cy="116.896" r="1.972"></circle>
                                    <circle id="Oval" fill="#344960" cx="15.199" cy="23.325" r="5.089"></circle>
                                    <circle id="Oval" fill="#344960" cx="25.715" cy="12.377" r="3.173"></circle>
                                    <circle id="Oval" fill="#344960" cx="11.676" cy="6.049" r="5.988"></circle>
                                </g>
                            </g>
                        </g>
                    </g>
                </g>
            </g>
        </g>
    </g>
</svg>