<?xml version="1.0" encoding="UTF-8" standalone="no"?>
<svg width="204px" height="204px" viewBox="0 0 204 204" version="1.1" xmlns="http://www.w3.org/2000/svg" xmlns:xlink="http://www.w3.org/1999/xlink">
    <!-- Generator: Sketch 3.8.2 (29753) - http://www.bohemiancoding.com/sketch -->
    <title>Group</title>
    <desc>Created with Sketch.</desc>
    <defs>
        <ellipse id="path-1" cx="101.695" cy="101.024" rx="101.672" ry="100.711"></ellipse>
    </defs>
    <g id="Page-1" stroke="none" stroke-width="1" fill="none" fill-rule="evenodd">
        <g id="8" transform="translate(-289.000000, -471.000000)">
            <g id="Livello_2" transform="translate(39.000000, 73.000000)">
                <g id="Group" transform="translate(0.000000, 134.000000)">
                    <g transform="translate(0.000000, 262.000000)">
                        <g transform="translate(250.000000, 2.000000)">
                            <circle id="Oval" fill="#14AA5A" cx="101.695" cy="102.024" r="101.671"></circle>
                            <rect id="Rectangle-path" fill="#3C5B75" x="55.624" y="107.95" width="92.143" height="40.008"></rect>
                            <g transform="translate(48.000000, 29.000000)">
                                <path d="M104.628,74.064 L68.74,74.064 L68.74,46.072 C68.74,45.843 68.706,45.621 68.647,45.409 L70.623,45.409 C70.972,45.409 71.19,45.033 71.019,44.729 L54.092,14.858 C53.918,14.55 53.474,14.55 53.3,14.858 L36.372,44.729 C36.2,45.033 36.419,45.409 36.768,45.409 L38.743,45.409 C38.685,45.621 38.651,45.843 38.651,46.072 L38.651,74.064 L2.763,74.064 C1.384,74.064 0.255,75.193 0.255,76.572 L0.255,125.031 C0.255,126.41 1.383,127.538 2.763,127.538 L104.628,127.538 C106.007,127.538 107.136,126.41 107.136,125.031 L107.136,76.572 C107.136,75.193 106.007,74.064 104.628,74.064 L104.628,74.064 Z" id="Shape" fill="#2E4257"></path>
                                <rect id="Rectangle-path" fill="#ECF0F1" x="53.382" y="0.038" width="0.627" height="14.82"></rect>
                                <polygon id="Shape" fill="#FCB73F" points="38.337 0.038 42.255 4.427 38.337 8.814 53.382 8.814 53.382 0.038"></polygon>
                                <circle id="Oval" fill="#ECF0F1" cx="53.695" cy="55.408" r="10.657"></circle>
                                <circle id="Oval" fill="#2F4054" cx="53.695" cy="55.408" r="0.856"></circle>
                                <path d="M53.742,46.963 L53.649,46.963 C53.483,46.963 53.347,46.827 53.347,46.661 L53.347,45.453 C53.347,45.287 53.483,45.152 53.649,45.152 L53.742,45.152 C53.908,45.152 54.044,45.287 54.044,45.453 L54.044,46.661 C54.043,46.827 53.908,46.963 53.742,46.963 L53.742,46.963 Z" id="Shape" fill="#2F4054"></path>
                                <path d="M47.756,49.403 L47.69,49.469 C47.573,49.586 47.381,49.586 47.264,49.469 L46.41,48.615 C46.292,48.498 46.292,48.305 46.41,48.188 L46.476,48.123 C46.593,48.006 46.785,48.006 46.902,48.123 L47.756,48.977 C47.874,49.094 47.874,49.286 47.756,49.403 L47.756,49.403 Z" id="Shape" fill="#2F4054"></path>
                                <path d="M45.25,55.361 L45.25,55.455 C45.25,55.621 45.114,55.756 44.948,55.756 L43.74,55.756 C43.574,55.756 43.438,55.621 43.438,55.455 L43.438,55.361 C43.438,55.195 43.574,55.059 43.74,55.059 L44.948,55.059 C45.114,55.06 45.25,55.195 45.25,55.361 L45.25,55.361 Z" id="Shape" fill="#2F4054"></path>
                                <path d="M47.69,61.347 L47.756,61.413 C47.874,61.53 47.874,61.722 47.756,61.839 L46.902,62.693 C46.785,62.81 46.593,62.81 46.476,62.693 L46.41,62.627 C46.292,62.51 46.292,62.318 46.41,62.201 L47.264,61.347 C47.381,61.229 47.573,61.229 47.69,61.347 L47.69,61.347 Z" id="Shape" fill="#2F4054"></path>
                                <path d="M53.648,63.854 L53.741,63.854 C53.907,63.854 54.043,63.99 54.043,64.156 L54.043,65.363 C54.043,65.529 53.907,65.665 53.741,65.665 L53.648,65.665 C53.482,65.665 53.346,65.529 53.346,65.363 L53.346,64.156 C53.347,63.989 53.483,63.854 53.648,63.854 L53.648,63.854 Z" id="Shape" fill="#2F4054"></path>
                                <path d="M59.634,61.413 L59.7,61.347 C59.817,61.23 60.01,61.23 60.127,61.347 L60.981,62.201 C61.098,62.318 61.098,62.51 60.981,62.627 L60.915,62.693 C60.797,62.81 60.605,62.81 60.488,62.693 L59.634,61.839 C59.517,61.722 59.517,61.53 59.634,61.413 L59.634,61.413 Z" id="Shape" fill="#2F4054"></path>
                                <path d="M62.141,55.455 L62.141,55.361 C62.141,55.195 62.276,55.059 62.442,55.059 L63.65,55.059 C63.816,55.059 63.951,55.195 63.951,55.361 L63.951,55.455 C63.951,55.621 63.815,55.756 63.65,55.756 L62.442,55.756 C62.276,55.756 62.141,55.621 62.141,55.455 L62.141,55.455 Z" id="Shape" fill="#2F4054"></path>
                                <path d="M59.7,49.47 L59.634,49.404 C59.517,49.287 59.517,49.094 59.634,48.977 L60.488,48.123 C60.605,48.006 60.797,48.006 60.915,48.123 L60.981,48.188 C61.098,48.305 61.098,48.498 60.981,48.615 L60.127,49.469 C60.009,49.587 59.817,49.587 59.7,49.47 L59.7,49.47 Z" id="Shape" fill="#2F4054"></path>
                                <path d="M53.752,55.408 L53.637,55.408 C53.433,55.408 53.267,55.241 53.267,55.037 L53.267,50.437 C53.267,50.233 53.434,50.066 53.637,50.066 L53.752,50.066 C53.956,50.066 54.123,50.233 54.123,50.437 L54.123,55.037 C54.123,55.241 53.956,55.408 53.752,55.408 L53.752,55.408 Z" id="Shape" fill="#2F4054"></path>
                                <path id="Shape" fill="#2F4054"></path>
                                <path d="M67.15,129.354 C67.362,129.05 67.487,128.686 67.487,128.294 L67.487,105.569 C67.487,104.52 66.594,103.662 65.505,103.662 L41.886,103.662 C40.796,103.662 39.904,104.52 39.904,105.569 L39.904,128.294 C39.904,128.686 40.029,129.05 40.241,129.354 L67.15,129.354 L67.15,129.354 Z" id="Shape" fill="#14AA5A"></path>
                                <g transform="translate(9.000000, 81.000000)" id="Shape" fill="#628AA5">
                                    <path d="M10.568,12.632 L3.595,12.632 C2.122,12.632 0.917,11.427 0.917,9.953 L0.917,2.981 C0.917,1.507 2.122,0.302 3.595,0.302 L10.568,0.302 C12.041,0.302 13.246,1.507 13.246,2.981 L13.246,9.953 C13.246,11.427 12.041,12.632 10.568,12.632 L10.568,12.632 Z"></path>
                                    <path d="M35.644,12.632 L28.671,12.632 C27.198,12.632 25.993,11.427 25.993,9.953 L25.993,2.981 C25.993,1.507 27.199,0.302 28.671,0.302 L35.644,0.302 C37.117,0.302 38.322,1.507 38.322,2.981 L38.322,9.953 C38.322,11.427 37.117,12.632 35.644,12.632 L35.644,12.632 Z"></path>
                                    <path d="M60.72,12.632 L53.747,12.632 C52.274,12.632 51.068,11.427 51.068,9.953 L51.068,2.981 C51.068,1.507 52.274,0.302 53.747,0.302 L60.72,0.302 C62.193,0.302 63.398,1.507 63.398,2.981 L63.398,9.953 C63.397,11.427 62.192,12.632 60.72,12.632 L60.72,12.632 Z"></path>
                                    <path d="M85.795,12.632 L78.822,12.632 C77.349,12.632 76.144,11.427 76.144,9.953 L76.144,2.981 C76.144,1.507 77.349,0.302 78.822,0.302 L85.795,0.302 C87.269,0.302 88.474,1.507 88.474,2.981 L88.474,9.953 C88.474,11.427 87.269,12.632 85.795,12.632 L85.795,12.632 Z"></path>
                                </g>
                                <g transform="translate(9.000000, 101.000000)" id="Shape" fill="#628AA5">
                                    <path d="M10.568,12.692 L3.595,12.692 C2.122,12.692 0.917,11.487 0.917,10.013 L0.917,3.041 C0.917,1.567 2.122,0.362 3.595,0.362 L10.568,0.362 C12.041,0.362 13.246,1.567 13.246,3.041 L13.246,10.013 C13.246,11.487 12.041,12.692 10.568,12.692 L10.568,12.692 Z"></path>
                                    <path d="M85.795,12.692 L78.822,12.692 C77.349,12.692 76.144,11.487 76.144,10.013 L76.144,3.041 C76.144,1.567 77.349,0.362 78.822,0.362 L85.795,0.362 C87.269,0.362 88.474,1.567 88.474,3.041 L88.474,10.013 C88.474,11.487 87.269,12.692 85.795,12.692 L85.795,12.692 Z"></path>
                                </g>
                            </g>
                            <rect id="Rectangle-path" fill="#3C5B75" x="82.993" y="121.788" width="12.329" height="0.844"></rect>
                            <rect id="Rectangle-path" fill="#3C5B75" x="57.917" y="121.788" width="12.329" height="0.844"></rect>
                            <rect id="Rectangle-path" fill="#3C5B75" x="57.917" y="141.849" width="12.329" height="0.844"></rect>
                            <rect id="Rectangle-path" fill="#3C5B75" x="108.068" y="121.788" width="12.329" height="0.844"></rect>
                            <polyline id="Shape" fill="#3C5B75" points="87.611 156.538 87.611 155.694 115.987 155.694 115.987 156.538"></polyline>
                            <rect id="Rectangle-path" fill="#3C5B75" x="133.145" y="121.788" width="12.329" height="0.844"></rect>
                            <rect id="Rectangle-path" fill="#3C5B75" x="133.145" y="141.849" width="12.329" height="0.844"></rect>
                            <g id="Clipped" transform="translate(0.000000, 2.000000)">
                                <mask id="mask-2" fill="white">
                                    <use xlink:href="#path-1"></use>
                                </mask>
                                <g id="SVGID_9_"></g>
                                <polyline id="Shape" fill="#3C5B75" mask="url(#mask-2)" points="83.108 154.356 49.09 194.653 101.695 214.882 150.917 190.656 120.282 154.356"></polyline>
                            </g>
                            <path d="M46.828,105.221 C47.878,104.276 56.594,95.77 56.594,95.77 L86.651,95.77 L86.651,103.065 L46.828,105.221 L46.828,105.221 Z" id="Shape" fill="#3C5B75"></path>
                            <path d="M156.604,105.221 C155.554,104.276 146.838,95.77 146.838,95.77 L116.78,95.77 L116.78,103.065 L156.604,105.221 L156.604,105.221 Z" id="Shape" fill="#3C5B75"></path>
                            <rect id="Rectangle-path" fill="#1F2D3A" x="86.849" y="131.781" width="29.693" height="24.795"></rect>
                            <g transform="translate(98.000000, 143.000000)" id="Oval" fill="#3C5B75">
                                <circle cx="1.618" cy="1.527" r="1.356"></circle>
                                <circle cx="5.772" cy="1.527" r="1.356"></circle>
                            </g>
                            <rect id="Rectangle-path" fill="#3C5B75" x="101.195" y="131.781" width="1" height="24.795"></rect>
                            <polygon id="Shape" fill="#3C5B75" points="116.781 95.77 116.781 105.221 156.604 105.221"></polygon>
                            <polygon id="Shape" fill="#3C5B75" points="86.65 95.77 86.65 105.221 46.828 105.221"></polygon>
                            <polyline id="Shape" fill="#3C5B75" points="86.743 74.409 102.009 43.858 116.647 74.409"></polyline>
                            <polygon id="Shape" fill="#628AA5" points="95.083 74.409 102.009 43.858 109.049 74.152"></polygon>
                        </g>
                    </g>
                </g>
            </g>
        </g>
    </g>
</svg>