<?xml version="1.0" encoding="UTF-8" standalone="no"?>
<svg width="208px" height="208px" viewBox="0 0 208 208" version="1.1" xmlns="http://www.w3.org/2000/svg" xmlns:xlink="http://www.w3.org/1999/xlink">
    <!-- Generator: Sketch 3.8.2 (29753) - http://www.bohemiancoding.com/sketch -->
    <title>Group</title>
    <desc>Created with Sketch.</desc>
    <defs>
        <path d="M17.766,24.372 L7.191,20.423 C1.758,18.395 -1.027,12.29 1.002,6.858 L1.002,6.858 C3.03,1.425 9.136,-1.36 14.568,0.669 L25.143,4.618 C30.576,6.647 33.361,12.751 31.331,18.184 L31.331,18.184 C29.303,23.615 23.198,26.4 17.766,24.372 L17.766,24.372 Z" id="path-1"></path>
        <path d="M17.894,24.466 L7.319,20.517 C1.886,18.488 -0.899,12.384 1.131,6.951 L1.131,6.951 C3.159,1.518 9.264,-1.267 14.696,0.762 L25.271,4.711 C30.704,6.74 33.489,12.844 31.46,18.277 L31.46,18.277 C29.432,23.709 23.326,26.494 17.894,24.466 L17.894,24.466 Z" id="path-3"></path>
    </defs>
    <g id="Page-1" stroke="none" stroke-width="1" fill="none" fill-rule="evenodd">
        <g id="8" transform="translate(-553.000000, -207.000000)">
            <g id="Livello_2" transform="translate(39.000000, 73.000000)">
                <g id="Group" transform="translate(0.000000, 134.000000)">
                    <g transform="translate(2.000000, 0.000000)">
                        <g transform="translate(512.000000, 0.000000)">
                            <circle id="Oval" fill="#2E4257" cx="103.9" cy="103.956" r="103.431"></circle>
                            <g transform="translate(61.000000, 42.000000)" id="Shape">
                                <polygon fill="#FFFFFF" points="90.277 24.21 66.739 0.671 0.808 0.671 0.808 125.965 90.312 125.965 90.312 24.209"></polygon>
                                <polygon fill="#BDC2C6" points="66.739 0.671 90.277 24.21 66.739 24.21"></polygon>
                                <path d="M82.636,31.048 L8.485,31.048 C7.522,31.048 6.734,30.259 6.734,29.297 L6.734,29.297 C6.734,28.334 7.522,27.546 8.485,27.546 L82.636,27.546 C83.6,27.546 84.388,28.334 84.388,29.297 L84.388,29.297 C84.388,30.26 83.6,31.048 82.636,31.048 L82.636,31.048 Z" fill="#E8E8E8"></path>
                                <path d="M82.636,43.367 L8.485,43.367 C7.522,43.367 6.734,42.579 6.734,41.616 L6.734,41.616 C6.734,40.653 7.522,39.865 8.485,39.865 L82.636,39.865 C83.6,39.865 84.388,40.653 84.388,41.616 L84.388,41.616 C84.388,42.579 83.6,43.367 82.636,43.367 L82.636,43.367 Z" fill="#E8E8E8"></path>
                                <path d="M82.636,56.591 L8.485,56.591 C7.522,56.591 6.734,55.803 6.734,54.839 L6.734,54.839 C6.734,53.876 7.522,53.088 8.485,53.088 L82.636,53.088 C83.6,53.088 84.388,53.876 84.388,54.839 L84.388,54.839 C84.388,55.803 83.6,56.591 82.636,56.591 L82.636,56.591 Z" fill="#E8E8E8"></path>
                                <path d="M82.636,68.909 L8.485,68.909 C7.522,68.909 6.734,68.121 6.734,67.158 L6.734,67.158 C6.734,66.195 7.522,65.407 8.485,65.407 L82.636,65.407 C83.6,65.407 84.388,66.195 84.388,67.158 L84.388,67.158 C84.388,68.121 83.6,68.909 82.636,68.909 L82.636,68.909 Z" fill="#E8E8E8"></path>
                                <path d="M82.636,79.477 L8.485,79.477 C7.522,79.477 6.734,78.689 6.734,77.726 L6.734,77.726 C6.734,76.763 7.522,75.975 8.485,75.975 L82.636,75.975 C83.6,75.975 84.388,76.763 84.388,77.726 L84.388,77.726 C84.388,78.688 83.6,79.477 82.636,79.477 L82.636,79.477 Z" fill="#E8E8E8"></path>
                                <path d="M82.636,91.795 L8.485,91.795 C7.522,91.795 6.734,91.007 6.734,90.044 L6.734,90.044 C6.734,89.081 7.522,88.293 8.485,88.293 L82.636,88.293 C83.6,88.293 84.388,89.081 84.388,90.044 L84.388,90.044 C84.388,91.007 83.6,91.795 82.636,91.795 L82.636,91.795 Z" fill="#E8E8E8"></path>
                                <path d="M82.636,100.611 L8.485,100.611 C7.522,100.611 6.734,99.823 6.734,98.86 L6.734,98.86 C6.734,97.897 7.522,97.109 8.485,97.109 L82.636,97.109 C83.6,97.109 84.388,97.897 84.388,98.86 L84.388,98.86 C84.388,99.823 83.6,100.611 82.636,100.611 L82.636,100.611 Z" fill="#E8E8E8"></path>
                                <path d="M82.636,112.93 L8.485,112.93 C7.522,112.93 6.734,112.141 6.734,111.179 L6.734,111.179 C6.734,110.216 7.522,109.427 8.485,109.427 L82.636,109.427 C83.6,109.427 84.388,110.216 84.388,111.179 L84.388,111.179 C84.388,112.142 83.6,112.93 82.636,112.93 L82.636,112.93 Z" fill="#E8E8E8"></path>
                            </g>
                            <g transform="translate(115.000000, 83.000000)">
                                <path d="M38.894,24.466 L28.319,20.517 C22.886,18.488 20.101,12.384 22.131,6.951 L22.131,6.951 C24.159,1.518 30.264,-1.267 35.696,0.762 L46.271,4.711 C51.704,6.74 54.489,12.844 52.46,18.277 L52.46,18.277 C50.432,23.709 44.326,26.494 38.894,24.466 L38.894,24.466 Z" id="Shape" fill="#F2F3F5"></path>
                                <path d="M18.766,78.372 L8.191,74.423 C2.758,72.395 -0.027,66.29 2.002,60.858 L2.002,60.858 C4.03,55.425 10.136,52.64 15.568,54.669 L26.143,58.618 C31.576,60.647 34.361,66.751 32.331,72.184 L32.331,72.184 C30.303,77.615 24.198,80.4 18.766,78.372 L18.766,78.372 Z" id="Shape" fill="#F2F3F5"></path>
                                <g id="Clipped" transform="translate(1.000000, 54.000000)">
                                    <mask id="mask-2" fill="white">
                                        <use xlink:href="#path-1"></use>
                                    </mask>
                                    <g id="SVGID_5_"></g>
                                    <rect id="Rectangle-path" fill="#BDC2C6" mask="url(#mask-2)" transform="translate(8.038559, 9.471524) rotate(20.475572) translate(-8.038559, -9.471524) " x="-0.627743082" y="-2.48320261" width="17.3326038" height="23.9094534"></rect>
                                </g>
                                <g id="Clipped" transform="translate(21.000000, 0.000000)">
                                    <mask id="mask-4" fill="white">
                                        <use xlink:href="#path-3"></use>
                                    </mask>
                                    <g id="SVGID_7_"></g>
                                    <rect id="Rectangle-path" fill="#BDC2C6" mask="url(#mask-4)" transform="translate(8.045287, 9.891442) rotate(20.475572) translate(-8.045287, -9.891442) " x="-0.621014882" y="-2.06328501" width="17.3326038" height="23.9094534"></rect>
                                </g>
                                <rect id="Rectangle-path" fill="#F89A36" transform="translate(18.991048, 36.816980) rotate(20.475572) translate(-18.991048, -36.816980) " x="10.3247463" y="8.36562992" width="17.3326038" height="56.9026992"></rect>
                                <rect id="Rectangle-path" fill="#F4C240" transform="translate(35.228719, 42.880587) rotate(20.475572) translate(-35.228719, -42.880587) " x="26.5624175" y="14.4292375" width="17.3326038" height="56.9026992"></rect>
                            </g>
                            <g transform="translate(73.000000, 90.000000)" id="Rectangle-path">
                                <rect fill="#BDC2C6" transform="translate(16.742238, 38.854123) rotate(-20.297864) translate(-16.742238, -38.854123) " x="12.1422475" y="3.0731939" width="9.19998169" height="71.5618576"></rect>
                                <rect fill="#F2F3F5" transform="translate(25.379688, 35.600610) rotate(-20.297864) translate(-25.379688, -35.600610) " x="20.7791976" y="-0.180318546" width="9.20098169" height="71.5618576"></rect>
                                <g transform="translate(14.000000, 4.000000)" fill="#BDC2C6">
                                    <rect transform="translate(2.657096, 2.140645) rotate(-20.297864) translate(-2.657096, -2.140645) " x="0.101601485" y="1.81514535" width="5.11098983" height="0.650998705"></rect>
                                    <rect transform="translate(5.290064, 9.348835) rotate(-20.292490) translate(-5.290064, -9.348835) " x="2.73415754" y="9.02334659" width="5.11181251" height="0.650976124"></rect>
                                    <rect transform="translate(8.000693, 16.522680) rotate(-20.303238) translate(-8.000693, -16.522680) " x="5.44510897" y="16.1966691" width="5.11116715" height="0.652021323"></rect>
                                    <rect transform="translate(10.635683, 23.714331) rotate(-20.297864) translate(-10.635683, -23.714331) " x="8.08018829" y="23.3888317" width="5.11098983" height="0.650998705"></rect>
                                    <rect transform="translate(13.295655, 30.905016) rotate(-20.297864) translate(-13.295655, -30.905016) " x="10.7401602" y="30.5795166" width="5.11098983" height="0.650998705"></rect>
                                    <rect transform="translate(15.955236, 38.097086) rotate(-20.297864) translate(-15.955236, -38.097086) " x="13.3997411" y="37.7715863" width="5.11098983" height="0.650998705"></rect>
                                    <rect transform="translate(18.615481, 45.288240) rotate(-20.297864) translate(-18.615481, -45.288240) " x="16.0599864" y="44.9622402" width="5.11098983" height="0.651998703"></rect>
                                    <rect transform="translate(21.301530, 52.478928) rotate(-20.303238) translate(-21.301530, -52.478928) " x="18.7459466" y="52.1534175" width="5.11116715" height="0.651021291"></rect>
                                    <rect transform="translate(23.934687, 59.670056) rotate(-20.297864) translate(-23.934687, -59.670056) " x="21.3791923" y="59.3440569" width="5.11098983" height="0.651998703"></rect>
                                </g>
                            </g>
                            <g transform="translate(65.000000, 64.000000)">
                                <rect id="Rectangle-path" fill="#F89A36" transform="translate(5.106223, 48.482403) rotate(0.114591) translate(-5.106223, -48.482403) " x="0.856714501" y="13.7358335" width="8.499017" height="69.493139"></rect>
                                <rect id="Rectangle-path" fill="#F4C240" transform="translate(12.623192, 48.534174) rotate(0.114591) translate(-12.623192, -48.534174) " x="8.3731835" y="13.7871045" width="8.500017" height="69.494139"></rect>
                                <path d="M0.92,13.734 L9.445,0.442 L16.955,13.766 C16.955,13.766 8.69,18.945 0.92,13.734 L0.92,13.734 Z" id="Shape" fill="#F7DCA1"></path>
                                <polygon id="Shape" fill="#2F4052" points="9.445 0.441 10.7 2.667 8.021 2.662"></polygon>
                                <path d="M0.783,83.227 C0.783,83.227 8.538,79.615 16.818,83.259 L16.807,88.768 L0.772,88.736 L0.783,83.227 L0.783,83.227 Z" id="Shape" fill="#ABAEB2"></path>
                                <path d="M0.772,88.736 L0.759,95.086 C0.759,95.086 5.558,100.27 16.794,95.117 L16.807,88.767 C16.808,88.768 9.268,84.52 0.772,88.736 L0.772,88.736 Z" id="Shape" fill="#FBBA96"></path>
                            </g>
                        </g>
                    </g>
                </g>
            </g>
        </g>
    </g>
</svg>