<?xml version="1.0" encoding="UTF-8" standalone="no"?>
<svg width="1026px" height="510px" viewBox="0 0 1026 510" version="1.1" xmlns="http://www.w3.org/2000/svg" xmlns:xlink="http://www.w3.org/1999/xlink">
    <!-- Generator: Sketch 3.8.2 (29753) - http://www.bohemiancoding.com/sketch -->
    <title>PISA-LOGO</title>
    <desc>Created with Sketch.</desc>
    <defs></defs>
    <g id="Page-1" stroke="none" stroke-width="1" fill="none" fill-rule="evenodd">
        <g id="PISA-LOGO" transform="translate(0.000000, -1.000000)">
            <g id="layer1" transform="translate(0.000000, 0.637830)">
                <path d="M416.43811,201.55792 C466.93121,212.56274 498.76891,228.64947 498.76891,246.57142 C498.76891,247.35375 498.71021,248.13283 498.58949,248.90864 C494.32578,233.07943 464.41783,218.8703 418.53072,208.88903 L416.43798,201.55792" id="path8094" fill="#F4C049"></path>
                <path d="M205.63515,80.61571 C208.22011,64.72457 212.5914,56.16454 218.67404,39.93764 C222.6835,29.25228 230.40904,17.77479 238.49315,13.08079 L245.52437,13.38721 C233.84152,19.22863 225.14785,35.36099 220.32346,50.43721 C217.87541,58.08452 213.43241,68.45043 211.47657,80.45599 L205.63515,80.61584" id="path8096" fill="#075DA5"></path>
                <path d="M189.99174,182.055 C191.29563,166.93315 192.36156,157.01382 194.42497,139.81227 C195.98637,126.77664 199.63726,108.00064 199.63726,104.60727 L206.41748,103.0426 C204.33126,114.78086 201.98426,130.94582 200.15882,146.07093 C199.1972,154.04421 198.46376,170.04945 196.50793,182.055 L189.99174,182.055" id="path8098" fill="#075DA5"></path>
                <path d="M202.50582,417.52428 C205.89593,433.66316 207.63662,444.58649 213.71926,460.81339 C217.72872,471.49875 228.84763,492.88579 236.93174,497.57979 L243.97274,498.10134 C232.28664,492.25992 220.89065,464.41538 216.06952,449.33916 C213.62147,441.6886 210.04229,430.76527 208.08646,418.75645 L202.50582,417.52428" id="path8100" fill="#075DA5"></path>
                <path d="M187.64474,295.74758 C187.64474,280.88325 186.86241,258.45963 187.64474,241.24829 C188.24127,228.13117 189.20941,199.52711 189.20941,196.137 L195.2073,196.137 C194.16419,207.08967 193.90341,229.77407 193.38186,244.6384 C193.10152,252.66384 193.90341,285.31647 194.16419,296.00836 L187.64474,295.74758" id="path8102" fill="#075DA5"></path>
                <path d="M198.59415,400.57698 C197.81182,390.14587 195.16818,378.88027 193.64263,361.7211 C192.59952,349.9861 189.47019,324.69066 189.47019,321.30054 L195.7256,321.8221 C196.24715,332.77477 197.81182,342.16277 199.11571,356.76632 C199.82959,364.76568 203.28815,391.71054 205.11359,402.40243 L198.59415,400.57698" id="path8104" fill="#075DA5"></path>
                <path d="M306.80388,96.88499 C325.86022,104.63987 342.19794,116.76277 359.12568,133.09398 C339.62276,119.98338 324.51069,109.96951 307.23417,103.59349 L306.80388,96.88499" id="path8106" fill="#019637"></path>
                <path d="M102.74203,304.9074 C109.14738,325.01663 119.48396,343.31345 133.24976,359.07094 C117.88995,343.21892 105.72793,324.20822 97.87852,303.1113 L102.74203,304.9074" id="path8108" fill="#019637"></path>
                <path d="M294.04207,323.32483 C248.43856,324.99707 179.45306,322.76742 124.92443,315.56017 C83.52271,310.08384 14.794728,294.96525 0.895299,270.4717 L0.895299,257.12966 C24.73688,290.47335 104.22194,297.41004 153.32313,304.96282 C178.23719,308.79625 256.20322,309.98279 294.04207,309.42538 L294.04207,323.32483" id="path8110" fill="#F4C049"></path>
                <path d="M80.01524,211.66958 C39.718562,221.70626 14.648041,235.0972 11.971809,250.0202 C11.711031,248.8793 11.446994,247.72862 11.446994,246.57142 C11.446994,230.21087 37.98113,215.3824 81.01598,204.55034 L80.01524,211.66958" id="path8112" fill="#F4C049"></path>
                <path d="M102.52363,199.73899 C144.28718,191.46256 197.34894,186.50778 255.10795,186.50778 C268.17944,186.50778 281.00644,186.76204 293.51726,187.24774 L294.41042,194.5104 C281.66165,194.01492 268.57712,193.7574 255.24486,193.7574 C195.05409,193.7574 139.95175,199.0186 97.39608,207.74161 L102.52363,199.73899" id="path8114" fill="#F4C049"></path>
                <path d="M401.95517,205.59019 C377.30841,201.10808 349.02706,197.72449 318.3759,195.74909 L317.73373,188.50925 C347.81445,190.47486 375.61661,193.82586 399.94066,198.2656 L401.95517,205.59019" id="path8116" fill="#F4C049"></path>
                <path d="M91.75676,282.50333 C89.21092,271.17906 87.86465,259.40168 87.86465,247.31138 C87.86465,158.59478 159.78064,86.6788 248.49398,86.6788 C260.31373,86.6788 271.00562,87.58826 280.86302,89.39415 L282.7178,97.35113 C274.76734,96.15807 265.92045,95.54524 256.05653,95.54524 C167.19651,95.54524 95.16643,166.99509 95.16643,255.13471 C95.16643,265.07686 96.0107,274.77453 97.78725,284.16579 L91.75676,282.50333" id="path8118" fill="#019637"></path>
                <path d="M414.53117,283.90827 C417.24326,271.80167 418.67428,259.21262 418.67428,246.29434 C418.67428,203.33447 405.3029,163.81686 379.16319,133.65139 C410.35547,165.00992 429.22926,207.44172 429.22926,255.16731 C429.22926,263.83165 428.59362,272.3493 427.3647,280.67463 L414.53117,283.90827" id="path8120" fill="#019637"></path>
                <path d="M421.54936,306.35472 C405.03234,359.90217 363.27857,402.37635 310.17444,419.88758 L310.17444,406.10873 C354.30781,388.4443 389.43784,353.20344 406.80563,309.08963 L421.54936,306.35472" id="path8122" fill="#019637"></path>
                <path d="M279.78405,426.93835 C271.94768,428.02058 263.94506,428.58125 255.81205,428.58125 C207.52579,428.58125 163.84877,408.8469 132.40876,377.00267 C162.72417,403.05763 202.44714,418.47612 245.64824,418.47612 C258.58608,418.47612 271.19142,417.06792 283.31759,414.38842 L279.78405,426.93835" id="path8124" fill="#019637"></path>
                <path d="M318.11186,321.77646 C341.70899,320.41716 365.24418,318.35376 386.67359,315.52106 C428.07858,310.04473 496.8033,294.92613 510.70601,270.43258 L510.70601,257.08728 C486.86115,290.43424 407.37609,297.37093 358.27489,304.9237 C349.78006,306.23085 335.12109,307.22833 317.98147,307.9585 L318.11186,321.77646" id="path8126" fill="#F4C049"></path>
                <path d="M255.18293,0.82424 C273.43737,9.95146 280.50119,35.15889 288.04092,58.71364 C298.46877,91.3076 307.86003,155.46219 308.91618,217.26 C310.0799,285.26758 312.44646,324.48203 300.555,391.44976 C294.21158,427.1535 287.40854,463.71128 278.11507,481.67887 C274.48048,488.71335 271.8727,497.57979 258.31226,510.3579 L271.35115,510.3579 C278.35629,503.03982 282.56133,498.85434 287.51937,490.01723 C299.51189,468.63346 304.33953,447.5072 310.46129,419.08568 C318.54866,381.53695 323.15465,325.78266 324.03151,265.75488 C324.80733,212.82678 321.93877,166.93315 313.59388,112.42082 C309.08895,82.97249 305.27507,66.2762 294.81789,38.38276 C288.56248,21.68646 284.65081,12.03768 270.82959,0.56346 L255.18293,0.82424" id="path8128" fill="#075DA5"></path>
                <path d="M593.301776,277.06289 C593.301776,272.25467 593.451723,271.65488 601.411964,271.65488 C617.035809,271.65488 625.595839,281.11798 625.595839,295.68894 C625.595839,308.75704 619.738119,317.91686 603.514485,320.91919 C602.614801,321.22221 602.614801,323.47481 603.664432,323.92465 C609.825306,323.92465 617.785549,322.57174 624.392999,319.41972 C630.850509,316.26744 639.413799,309.35683 639.413799,295.53899 C639.413799,285.17308 634.305819,277.36279 627.398469,273.00441 C620.337909,268.65281 611.024884,267 598.556447,267 C586.091271,267 576.781505,267.15125 568.818004,268.20297 C567.618426,268.80276 567.468479,271.05196 568.51811,271.95478 L573.925988,272.55456 C580.686652,273.15774 580.986546,275.85992 580.986546,288.62838 L580.986546,344.05335 C580.986546,359.82725 580.686652,361.62975 571.973415,362.82935 L568.818004,363.28255 C567.918321,364.18225 568.218215,366.58135 569.121158,367.03125 C575.728615,366.73445 581.136493,366.58135 587.440796,366.58135 C593.451723,366.58135 598.4065,366.73525 606.96979,367.03125 C607.872733,366.58135 608.172627,364.03225 607.269684,363.28255 L603.21459,362.82935 C593.60167,361.77965 593.301776,359.82725 593.301776,344.05335 L593.301776,277.06289" id="path8130" fill="#000000"></path>
                <path d="M716.277692,343.75345 C716.277692,359.67725 715.977792,361.77965 707.114612,362.82935 L703.359412,363.28255 C702.459732,364.18225 702.759622,366.58135 703.659302,367.03125 C711.172962,366.73445 716.277692,366.58135 722.588512,366.58135 C728.592922,366.58135 733.700902,366.73525 741.211302,367.03125 C742.110982,366.58135 742.414142,363.88235 741.511192,363.28255 L737.755992,362.82935 C728.892812,361.77965 728.592922,359.67725 728.592922,343.75345 L728.592922,290.28093 C728.592922,274.35732 728.892812,271.80483 737.755992,271.05196 L741.511192,270.75207 C742.414142,270.15228 742.110982,267.44984 741.211302,267 C733.700902,267.29989 728.592922,267.44984 722.588512,267.44984 C716.277692,267.44984 711.172962,267.29859 703.659302,267 C702.759622,267.44984 702.459732,270.15228 703.359412,270.75207 L707.114612,271.05196 C715.977792,271.80483 716.277692,274.35732 716.277692,290.28093 L716.277692,343.75345" id="path8132" fill="#000000"></path>
                <path d="M867.296338,341.1537 C867.296338,326.88267 857.983308,318.1693 848.520338,312.31484 L836.501748,304.80444 C830.943918,301.19919 823.736668,295.03831 823.736668,286.32834 C823.736668,279.41773 826.888828,269.65499 841.609728,269.65499 C856.030738,269.65499 860.085828,279.41773 862.038408,286.62823 C862.791398,287.52791 865.193818,287.07807 865.793608,286.17839 C865.793608,279.86757 864.444078,271.45748 863.091298,267.85562 C861.888458,267.85562 859.785938,267.40239 857.833368,266.95255 C853.928218,265.75297 848.520338,265 843.865458,265 C824.339718,265 813.224068,276.56221 813.224068,290.83327 C813.224068,303.15189 821.937308,311.71192 829.444448,316.66983 L843.712248,325.97959 C854.677958,333.0402 856.030738,340.4006 856.030738,347.0113 C856.030738,356.0246 849.873128,364.2847 837.254738,364.2847 C819.831528,364.2847 813.673908,349.5638 811.421448,341.9035 C810.821658,341.0004 808.565928,341.3037 807.816188,342.3533 C808.116088,349.4139 810.068658,360.0797 811.871288,363.385 C814.726798,365.0345 822.687038,368.9396 835.302168,368.9396 C854.827898,368.9396 867.296338,357.674 867.296338,341.1537" id="path8134" fill="#000000"></path>
                <path d="M996.407437,352.116 C997.610267,355.7213 998.360007,358.4269 998.360007,360.0797 C998.360007,361.5823 996.257487,362.482 993.102077,362.7819 L988.747087,363.2351 C987.694197,363.9848 987.847407,366.384 989.046977,366.9838 C993.405227,366.8377 999.112997,366.5339 1006.32351,366.5339 C1013.08091,366.5339 1018.33558,366.6878 1024.49646,366.9838 C1025.2462,366.384 1025.54609,363.9848 1024.49646,363.2351 L1020.43811,362.7819 C1013.98386,362.0321 1012.03128,359.7798 1007.67303,346.8614 L987.094407,286.47828 C984.841937,279.86757 982.436267,272.95696 980.486947,266.35276 C980.183797,265.2999 979.134167,265 978.231227,265 C976.578547,266.95255 974.026177,269.65499 970.420927,270.70462 C970.870767,273.11029 969.971087,275.96242 967.871827,281.37043 L952.547877,321.9245 C946.240307,338.7481 942.035267,348.5142 939.329697,355.4214 C937.227177,360.8294 933.921827,362.482 930.316567,362.7819 L925.361797,363.2351 C924.458847,363.9848 924.758747,366.384 925.661687,366.9838 C929.716777,366.8377 935.124657,366.5339 940.082697,366.5339 C947.139997,366.6878 951.798137,366.6878 955.703287,366.9838 C957.056067,366.384 957.056067,363.9848 956.003177,363.2351 L951.048397,362.7819 C947.443147,362.482 946.690157,361.5823 946.690157,359.7798 C946.690157,358.127 947.743047,354.0687 949.995507,347.3112 L955.253447,331.5376 C956.306337,328.38527 957.206017,327.9323 960.961217,327.9323 L983.639097,327.9323 C988.147297,327.9323 988.747087,328.38527 989.799977,331.6875 L996.407437,352.116 L996.407437,352.116 Z M969.521247,292.18619 C971.173927,287.67786 972.673397,284.07261 973.123237,283.32287 L973.426397,283.32287 C974.326077,285.12563 975.678857,289.18072 976.881697,292.78598 L984.991887,317.27301 C986.344667,321.32471 986.044777,321.9245 981.686527,321.9245 L963.213687,321.9245 C959.008647,321.9245 958.858697,321.77325 960.058277,318.31925 L969.521247,292.18619 L969.521247,292.18619 Z" id="path8136" fill="#000000"></path>
                <path d="M622.28867,247.9395 C651.27737,247.9395 674.40836,225.85814 674.40836,195.51991 C674.40836,169.08356 656.98515,144 622.28867,144 C591.344126,144 568.816188,166.98104 568.816188,197.01938 C568.816188,224.05551 588.941711,247.9395 622.28867,247.9395 L622.28867,247.9395 Z M624.24124,243.28461 C594.649484,243.28461 583.833727,214.44585 583.833727,192.21455 C583.833727,159.32069 604.112457,148.65488 619.73304,148.65488 C648.42186,148.65488 659.38756,175.39112 659.38756,200.17479 C659.38756,229.76329 642.26424,243.28461 624.24124,243.28461 L624.24124,243.28461 Z" id="path8138" fill="#000000"></path>
                <path d="M711.630232,223.0533 C711.630232,238.82384 710.880502,241.07631 702.317212,241.8293 L697.359172,242.27914 C696.459492,243.18209 696.759382,245.5845 697.662332,246.03434 C706.522252,245.73445 711.630232,245.5845 718.091002,245.5845 L731.605812,245.5845 C744.973932,245.5845 758.342052,245.73445 771.863382,246.03434 C773.815952,241.97925 777.567892,230.41375 778.617522,225.15582 C778.017732,223.80304 775.918472,223.3532 774.865582,224.10293 C770.960442,231.91323 766.905342,237.17116 764.203032,238.67389 C760.897672,240.32657 756.539422,240.92636 744.973932,240.92636 C731.755762,240.92636 728.600352,239.27368 726.800982,237.47105 C724.398572,234.91869 723.948722,229.81071 723.948722,221.85047 L723.948722,200.67205 C723.948722,196.7669 724.398572,196.61696 728.900242,196.61696 L737.613482,196.61696 C743.471202,196.61696 747.076452,196.7669 749.182232,197.36995 C752.184442,198.11969 753.237332,200.37216 753.837112,203.07773 L755.189902,208.93545 C755.939642,209.83513 758.495262,209.83513 759.095052,208.7855 C759.095052,205.48014 758.495262,199.77237 758.495262,194.36449 C758.495262,188.65672 759.095052,182.799 759.095052,179.19374 C758.495262,178.14085 755.939642,178.14085 755.189902,179.0438 L753.987062,185.20141 C753.237332,188.95661 752.184442,189.85955 750.381812,190.45934 C748.579182,191.05913 743.924302,191.35903 737.613482,191.35903 L728.900242,191.35903 C724.398572,191.35903 723.948722,191.35903 723.948722,187.15398 L723.948722,157.11565 C723.948722,151.40787 723.948722,151.10472 728.450402,151.10472 L739.266162,151.10472 C745.876872,151.10472 750.681702,151.2578 753.837112,152.00766 C761.647412,153.96024 763.000192,159.21817 765.252662,166.27873 C766.005662,167.17841 768.408072,166.87851 769.007862,165.97883 C768.408072,159.36811 767.505132,148.55236 766.605452,146 C764.802822,146.44984 755.939642,146.44984 746.326722,146.44984 L718.091002,146.44984 C711.930132,146.44984 706.825402,146.29989 700.364642,146 C699.464952,146.44984 699.161802,149.15541 700.064742,149.75519 L702.467162,150.05509 C711.330342,151.10472 711.630232,153.36045 711.630232,168.98103 L711.630232,223.0533" id="path8140" fill="#000000"></path>
                <path d="M796.816188,196.56954 C796.816188,215.94858 806.129218,229.61334 818.147818,237.87673 C829.110258,245.23719 842.028538,247.9395 855.546608,247.9395 C865.159528,247.9395 875.972018,245.68703 879.277378,244.48419 C880.930058,243.8844 882.732688,243.28461 884.535308,242.98146 C886.787778,240.1292 890.692928,230.21313 891.745818,222.40283 C891.146028,221.3532 888.890298,221.05331 887.840668,221.80305 C884.385368,230.66623 875.822078,243.28461 856.449548,243.28461 C831.812568,243.28461 811.840248,225.85814 811.840248,194.31707 C811.840248,163.22584 831.362728,148.65488 854.347028,148.65488 C876.121968,148.65488 882.882628,160.37359 885.135098,170.58629 C886.187988,171.48924 888.440458,171.33603 889.193458,170.2864 C887.990618,161.12332 887.237618,151.66035 887.087668,148.20504 C885.738148,148.35499 884.685258,148.0551 882.882628,147.60525 C875.822078,145.65268 864.409788,144 856.299598,144 C840.675748,144 826.707838,148.20504 815.745398,156.76833 C804.326588,165.62826 796.816188,179.89606 796.816188,196.56954" id="path8142" fill="#000000"></path>
                <path d="M924.823713,223.0533 C924.823713,238.82384 924.523813,240.62646 915.817093,241.8293 L912.361793,242.27914 C911.458853,243.18209 911.758743,245.5845 912.661683,246.03434 C919.722243,245.73445 925.126863,245.5845 931.434423,245.5845 C936.692353,245.5845 946.305273,246.78408 955.918193,246.78408 C967.486953,246.78408 979.798923,244.83151 989.565043,239.57683 C1006.68836,230.26055 1015.85144,213.89348 1015.85144,194.81433 C1015.85144,174.98544 1005.63547,157.86538 985.356743,150.50493 C975.593883,146.89968 964.931333,146 952.316203,146 C939.547873,146 927.379333,146.44984 914.614263,147.19957 C913.111533,147.80262 913.261473,150.20504 914.464313,150.95477 L917.769673,151.40787 C924.073973,152.30756 924.823713,155.46297 924.823713,165.97883 L924.823713,223.0533 L924.823713,223.0533 Z M937.142203,164.1762 C937.142203,157.41554 937.442093,153.66034 938.644933,152.7574 C939.847763,151.85772 944.652603,150.65488 953.515783,150.65488 C992.867143,150.65488 1000.83064,178.5907 1000.83064,195.11423 C1000.83064,223.0533 987.762423,242.1292 958.623763,242.1292 C949.160793,242.1292 943.453023,240.62646 940.147663,235.97158 C937.592043,232.36633 937.142203,227.55824 937.142203,219.60126 L937.142203,164.1762 L937.142203,164.1762 Z" id="path8144" fill="#000000"></path>
            </g>
        </g>
    </g>
</svg>